HIERARCHY
ROOT Hips
{
	OFFSET -3.958830 18.904000 13.208200
	CHANNELS 6 Xposition Yposition Zposition Zrotation Yrotation Xrotation 
	JOINT LHipJoint
	{
		OFFSET 0.000000 0.000000 0.000000
		CHANNELS 3 Zrotation Yrotation Xrotation
		JOINT LeftUpLeg
		{
			OFFSET 1.800000 -1.400000 0.085000
			CHANNELS 3 Zrotation Yrotation Xrotation
			JOINT LeftLeg
			{
				OFFSET 2.215000 -6.000000 0.000000
				CHANNELS 3 Zrotation Yrotation Xrotation
				JOINT LeftFoot
				{
					OFFSET 2.500000 -6.900000 0.000000
					CHANNELS 3 Zrotation Yrotation Xrotation
					JOINT LeftToeBase
					{
						OFFSET 0.200000 -0.500000 1.950000
						CHANNELS 3 Zrotation Yrotation Xrotation
						End Site
						{
							OFFSET 0.000000 0.000000 0.000000
						}
					}
				}
			}
		}
	}
	JOINT RHipJoint
	{
		OFFSET 0.000000 0.000000 0.000000
		CHANNELS 3 Zrotation Yrotation Xrotation
		JOINT RightUpLeg
		{
			OFFSET -1.800000 -1.400000 0.085000
			CHANNELS 3 Zrotation Yrotation Xrotation
			JOINT RightLeg
			{
				OFFSET -2.215000 -6.000000 0.000000
				CHANNELS 3 Zrotation Yrotation Xrotation
				JOINT RightFoot
				{
					OFFSET -2.500000 -6.900000 0.000000
					CHANNELS 3 Zrotation Yrotation Xrotation
					JOINT RightToeBase
					{
						OFFSET -0.200000 -0.500000 1.950000
						CHANNELS 3 Zrotation Yrotation Xrotation
						End Site
						{
							OFFSET 0.000000 0.000000 0.000000
						}
					}
				}
			}
		}
	}
	JOINT LowerBack
	{
		OFFSET 0.000000 0.000000 0.000000
		CHANNELS 3 Zrotation Yrotation Xrotation
		JOINT Spine
		{
			OFFSET -0.087000 1.940000 -0.288900
			CHANNELS 3 Zrotation Yrotation Xrotation
			JOINT Spine1
			{
				OFFSET 0.000000 1.950000 0.060000
				CHANNELS 3 Zrotation Yrotation Xrotation
				JOINT Neck
				{
					OFFSET 0.000000 0.000000 0.000000
					CHANNELS 3 Zrotation Yrotation Xrotation
					JOINT Neck1
					{
						OFFSET 0.000000 1.600000 0.340000
						CHANNELS 3 Zrotation Yrotation Xrotation
						JOINT Head
						{
							OFFSET 0.000000 1.667000 -0.240000
							CHANNELS 3 Zrotation Yrotation Xrotation
							End Site
							{
								OFFSET 0.000000 0.000000 0.000000
							}
						}
					}
				}
				JOINT LeftShoulder
				{
					OFFSET 0.000000 0.000000 0.000000
					CHANNELS 3 Zrotation Yrotation Xrotation
					JOINT LeftArm
					{
						OFFSET 2.700000 1.550000 -0.730000
						CHANNELS 3 Zrotation Yrotation Xrotation
						JOINT LeftForeArm
						{
							OFFSET 5.450000 0.000000 0.000000
							CHANNELS 3 Zrotation Yrotation Xrotation
							JOINT LeftHand
							{
								OFFSET 3.450000 0.000000 0.000000
								CHANNELS 3 Zrotation Yrotation Xrotation
								JOINT LeftHandIndex1
								{
									OFFSET 0.750000 0.000000 0.000000
									CHANNELS 3 Zrotation Yrotation Xrotation
									End Site
									{
										OFFSET 0.000000 0.000000 0.000000
									}
								}
							}
						}
					}
				}
				JOINT RightShoulder
				{
					OFFSET 0.000000 0.000000 0.000000
					CHANNELS 3 Zrotation Yrotation Xrotation
					JOINT RightArm
					{
						OFFSET -2.700000 1.550000 -0.730000
						CHANNELS 3 Zrotation Yrotation Xrotation
						JOINT RightForeArm
						{
							OFFSET -5.450000 0.000000 0.000000
							CHANNELS 3 Zrotation Yrotation Xrotation
							JOINT RightHand
							{
								OFFSET -3.450000 0.000000 0.000000
								CHANNELS 3 Zrotation Yrotation Xrotation
								JOINT RightHandIndex1
								{
									OFFSET -0.750000 0.000000 0.000000
									CHANNELS 3 Zrotation Yrotation Xrotation
									End Site
									{
										OFFSET 0.000000 0.000000 0.000000
									}
								}
							}
						}
					}
				}
			}
		}
	}
}
MOTION
Frames: 7
Frame Time: 0.016667
0.267580 17.003440 -1.048940 -4.192376 3.041745 0.998387 -15.566644 12.835222 3.343082 1.142053 0.767104 -0.050145 -8.602106 4.057020 -3.313776 0.148730 4.322793 3.307871 -0.042290 -0.162400 -0.084100 17.877732 -10.433437 2.789760 -20.807185 -0.196339 -14.707947 3.030183 -3.267228 0.280462 -0.136039 -3.480188 3.134450 -0.097250 0.360740 0.215630 -2.529591 -1.593194 -7.860293 -1.325440 1.210139 4.578556 5.720732 -0.136215 11.256985 1.484096 1.651118 -16.253111 1.411917 0.127791 38.461020 -2.914880 2.316340 0.810000 -24.073036 -26.952530 10.473745 -36.905527 -6.055981 -2.065979 -34.655018 -23.397329 4.141721 -3.835000 3.193561 0.157580 0.245630 -0.087910 0.101860 22.420333 27.404097 12.201686 35.951172 4.642252 -4.069843 26.736371 22.565787 2.346458 2.263951 -1.420507 -0.109740 0.129260 0.155980 -0.017260 
0.278460 17.005790 -1.054450 -4.357058 2.886236 0.958514 -15.555882 12.883587 3.372737 1.188566 0.740062 -0.107529 -8.597812 4.068827 -3.280185 0.140836 4.324774 3.309066 -0.049720 -0.171170 -0.088710 17.880729 -10.464183 2.772028 -19.380823 -0.104930 -14.571736 3.107801 -3.207990 0.364666 -0.123399 -3.386691 3.184837 -0.100500 0.365210 0.208890 -2.547185 -1.636539 -7.886746 -0.805689 1.078320 4.843783 5.370658 -0.217165 11.367264 1.590983 1.479751 -16.469371 1.060637 0.407944 38.610821 -2.868000 2.475690 0.808470 -24.256855 -27.330615 10.641179 -36.737727 -5.909119 -2.212148 -34.454541 -23.758877 4.154685 -3.826583 3.182536 0.165230 0.244750 -0.089850 0.100750 22.362890 27.875658 12.367342 35.775036 4.712222 -4.114167 26.670056 22.771491 2.380516 2.258441 -1.408473 -0.119020 0.138690 0.161390 -0.020090 
0.286120 17.008600 -1.057370 -4.561743 2.758302 0.996111 -15.534549 12.911065 3.387347 1.260081 0.686329 -0.254278 -8.584131 4.072413 -3.239047 0.134799 4.322530 3.315376 -0.061660 -0.182350 -0.106230 17.902085 -10.494071 2.755747 -17.709360 0.006021 -14.423814 3.276484 -3.152787 0.464065 -0.102204 -3.306954 3.235367 -0.102660 0.383450 0.205010 -2.605092 -1.645951 -7.882021 -0.206744 0.914197 4.960093 4.911242 -0.309635 11.560859 1.622817 1.354943 -16.550356 0.853484 0.703610 38.248773 -2.706830 2.608340 1.147790 -24.134950 -27.610094 10.769770 -36.652883 -5.875930 -2.342804 -34.386603 -24.135772 4.196960 -3.832305 3.186027 0.155740 0.257080 -0.105970 0.103940 22.107857 28.182450 12.428863 35.904971 4.967115 -4.135703 26.565798 23.054254 2.399522 2.252616 -1.411181 -0.126730 0.142880 0.168940 -0.016620 
0.294210 17.011010 -1.061330 -4.752208 2.487194 0.980437 -15.509411 12.946868 3.405109 1.239164 0.655449 -0.343394 -8.459522 4.072023 -3.160136 0.132844 4.299545 3.321929 -0.067250 -0.179820 -0.117780 17.926851 -10.520558 2.755508 -15.854656 0.118603 -14.270751 3.482660 -3.095154 0.562117 -0.087186 -3.211841 3.286125 -0.100780 0.388590 0.197920 -2.671285 -1.669495 -7.899494 0.529950 0.752995 5.237953 4.306686 -0.346614 11.694576 1.679283 1.090978 -16.656494 0.351968 1.081758 38.111873 -2.458150 2.727400 1.148810 -24.179984 -27.844666 10.883913 -36.414127 -5.719200 -2.517429 -34.313882 -24.513006 4.241735 -3.824463 3.186844 0.150230 0.257500 -0.109210 0.105130 21.982644 28.569696 12.524976 35.995406 5.183880 -4.211481 26.600682 23.448978 2.457631 2.252687 -1.409566 -0.128420 0.147760 0.170830 -0.011060 
0.300630 17.014260 -1.066470 -4.781068 2.195666 0.968580 -15.499614 12.977495 3.417599 0.948614 0.637405 -0.431720 -8.091377 4.032077 -3.095858 0.133450 4.245869 3.336264 -0.068200 -0.173370 -0.123380 17.942426 -10.533657 2.765250 -13.928500 0.223855 -14.043752 3.570727 -3.024832 0.549000 -0.080057 -3.122436 3.329617 -0.102100 0.387710 0.196940 -2.700379 -1.700278 -7.911986 0.877067 0.705762 5.463018 3.957987 -0.329073 11.892997 1.722663 0.904602 -16.834645 -0.016592 1.334016 38.088010 -2.239060 2.785050 1.107660 -24.032251 -28.189730 11.006118 -36.415970 -5.766427 -2.617359 -34.275456 -24.566369 4.198308 -3.817372 3.191303 0.143840 0.254380 -0.106730 0.104910 21.725143 29.036560 12.693697 36.110430 5.273403 -4.392369 26.820115 24.004478 2.537582 2.253931 -1.413315 -0.120730 0.146080 0.170710 -0.004360 
0.307620 17.015810 -1.074940 -4.848270 1.818300 0.932686 -15.485922 13.011597 3.423667 0.841088 0.597468 -0.603311 -7.880212 4.029594 -2.856930 0.136059 4.197463 3.345078 -0.058520 -0.159740 -0.118890 17.960155 -10.541058 2.796589 -11.822085 0.343164 -13.803318 3.684099 -2.960570 0.490358 -0.082845 -3.034124 3.369421 -0.104260 0.376170 0.205640 -2.735710 -1.733457 -7.944328 1.368285 0.657915 5.804358 3.486741 -0.284741 12.026424 1.857354 0.711976 -17.045793 -0.426183 1.549545 38.245259 -2.326720 2.951030 0.970890 -24.082276 -28.543433 11.140842 -36.235194 -5.701754 -2.773204 -34.218959 -24.788620 4.198464 -3.801573 3.206052 0.142790 0.247590 -0.094320 0.107380 21.478797 29.559879 12.869927 36.264730 5.405067 -4.545071 27.055433 24.472285 2.613007 2.255323 -1.420957 -0.104130 0.135090 0.164450 -0.000080 
0.312280 17.019150 -1.079150 -4.841260 1.540350 0.870704 -15.477885 13.042814 3.418057 0.684438 0.581867 -0.729651 -7.628714 4.043722 -2.536756 0.113294 4.172925 3.356506 -0.062070 -0.165310 -0.120870 17.976776 -10.531252 2.837154 -9.765132 0.438492 -13.416713 3.979037 -2.946656 0.437692 -0.082166 -2.977512 3.406411 -0.104150 0.384670 0.201490 -2.762301 -1.786773 -7.966745 1.709706 0.552531 6.098282 3.060403 -0.293490 12.242204 1.960849 0.484274 -17.212935 -0.877901 1.847690 38.275727 -2.418960 3.150340 0.773790 -24.078695 -28.853024 11.264986 -36.034885 -5.562003 -2.961183 -34.017899 -25.125108 4.180146 -3.797680 3.188451 0.153660 0.250380 -0.095400 0.109230 21.253996 30.057149 13.007547 36.332422 5.633664 -4.657464 27.379912 24.829699 2.693629 2.244180 -1.410882 -0.115590 0.150280 0.169420 -0.003850 
